<?xml version="1.0" encoding="UTF-8"?>
<svg id="Layer_2" data-name="Layer 2" xmlns="http://www.w3.org/2000/svg" viewBox="0 0 520 125.63">
  <defs>
    <style>
      .cls-1 {
        fill: #fff;
        stroke-width: 0px;
      }
    </style>
  </defs>
  <g id="Your_design" data-name="Your design">
    <path class="cls-1" d="M41.5,107.51c-5.66-1.25-10.11-4.22-12.2-8.16-2.2-4.15-3.33-8.11-3.38-11.87,2.98,2.22,5.72,3.74,7.83,4.73,13.52,6.39,28.98,5.45,38.47-2.35,7.19-5.91,9.94-14.77,7.55-24.31-2.43-9.7-9.7-16.43-19.93-18.47-11.56-2.31-25.36,1.74-35.6,9.76-2.3-6.24-3.51-13.56-3.51-21.71H3.43c0,16.1,3.69,27.95,8.66,36.61-5.22,10.96-4.6,23.38,1.93,35.7,4.47,8.43,13.14,14.61,23.76,16.95,3.24.71,6.54,1.15,9.86,1.15,11.06,0,21.68-.75,33.64-13.19l-12.11-11.91c-7.09,7.48-18.61,9.04-27.67,7.05v.02ZM56.46,64.06c4.76.95,6.32,3.19,6.86,5.35.98,3.89-.75,6-2.07,7.09-3.68,3.02-11.76,4.02-20.09.08-2.76-1.3-5.27-3.02-7.51-5.1,6.88-6.13,16.52-8.68,22.82-7.42h-.01Z"/>
    <path class="cls-1" d="M198.62,50.16c-4.5-2.36-9.53-3.53-15.08-3.53s-10.76,1.21-15.32,3.61c-3.75,1.98-6.9,4.65-9.48,7.98-2.38-3.43-5.42-6.15-9.13-8.14-4.3-2.3-9.06-3.46-14.29-3.46-5.55,0-10.5,1.18-14.84,3.53-2.45,1.33-4.62,2.97-6.52,4.9v-6.86h-19.95v75.71h19.95v-44.77c0-3.03.68-5.63,2.04-7.77,1.36-2.15,3.14-3.79,5.34-4.95,2.2-1.15,4.71-1.73,7.54-1.73,4.19,0,7.7,1.26,10.52,3.77,2.83,2.51,4.24,6.07,4.24,10.68v44.77h19.95v-44.77c0-3.03.68-5.63,2.04-7.77,1.36-2.15,3.17-3.79,5.42-4.95,2.25-1.15,4.74-1.73,7.46-1.73,4.09,0,7.54,1.26,10.37,3.77,2.83,2.51,4.24,6.07,4.24,10.68v44.77h20.1v-48.06c0-6.18-1.31-11.41-3.93-15.71-2.62-4.29-6.18-7.62-10.68-9.97h0Z"/>
    <path class="cls-1" d="M290.66,51.8c-5.55-3.46-11.83-5.18-18.85-5.18-5.44,0-10.37,1.13-14.76,3.38-2.68,1.37-5.03,3.07-7.07,5.08V10.5h-19.95v113.41h19.79v-7.35c2.07,2.12,4.48,3.92,7.22,5.39,4.4,2.36,9.32,3.53,14.76,3.53,7.02,0,13.3-1.73,18.85-5.18,5.55-3.46,9.92-8.14,13.12-14.06,3.19-5.91,4.79-12.59,4.79-20.03s-1.6-14.42-4.79-20.34c-3.2-5.91-7.57-10.6-13.12-14.06h.01ZM285.63,96.96c-1.68,3.2-3.98,5.65-6.91,7.38-2.93,1.73-6.34,2.59-10.21,2.59s-7.3-.86-10.29-2.59c-2.99-1.73-5.32-4.19-6.99-7.38-1.68-3.19-2.51-6.83-2.51-10.92s.81-7.85,2.43-11c1.62-3.14,3.95-5.6,6.99-7.38,3.04-1.78,6.44-2.67,10.21-2.67,3.98,0,7.43.89,10.37,2.67,2.93,1.78,5.23,4.24,6.91,7.38,1.67,3.14,2.51,6.81,2.51,11s-.84,7.72-2.51,10.92h0Z"/>
    <path class="cls-1" d="M450.78,48.51c-2.93-1.26-6.28-1.89-10.05-1.89-8.38,0-14.82,2.75-19.32,8.25-.11.13-.21.27-.31.4v-7.08h-19.59v75.71h19.59v-41.94c0-5.86,1.41-10.21,4.24-13.04s6.49-4.24,11-4.24c2.09,0,3.98.31,5.65.94,1.67.63,3.09,1.62,4.24,2.98l12.57-14.14c-2.41-2.72-5.08-4.71-8.01-5.97v.02Z"/>
    <path class="cls-1" d="M509.32,83.14c-2.93-1.73-6-3.11-9.19-4.16-3.2-1.05-6.26-1.96-9.19-2.75-2.93-.78-5.32-1.7-7.15-2.75s-2.75-2.56-2.75-4.55c0-1.67.84-2.98,2.51-3.93,1.67-.94,4.08-1.41,7.22-1.41,3.35,0,6.47.63,9.35,1.89s5.42,3.25,7.62,5.97l12.25-12.09c-3.35-4.29-7.54-7.54-12.57-9.74-5.03-2.2-10.63-3.3-16.81-3.3s-11.1,1-15.39,2.98c-4.3,1.99-7.62,4.74-9.97,8.25-2.36,3.51-3.53,7.72-3.53,12.64,0,4.4.91,8.04,2.75,10.92,1.83,2.88,4.21,5.18,7.15,6.91,2.93,1.73,6.02,3.04,9.27,3.93s6.33,1.75,9.27,2.59c2.93.84,5.34,1.83,7.23,2.99,1.89,1.15,2.83,2.83,2.83,5.03,0,1.89-.92,3.33-2.75,4.32-1.83,1-4.48,1.49-7.93,1.49-4.19,0-8.01-.73-11.46-2.2-3.46-1.47-6.44-3.66-8.95-6.6l-12.09,12.09c2.51,2.83,5.47,5.29,8.87,7.38,3.4,2.1,7.12,3.72,11.15,4.87s8.25,1.73,12.64,1.73c9.11,0,16.34-2.17,21.68-6.52,5.34-4.34,8.01-10.18,8.01-17.51,0-4.71-.94-8.53-2.83-11.47-1.88-2.93-4.29-5.26-7.22-6.99h-.02Z"/>
    <path class="cls-1" d="M350.1,107.46c-5.65-1.24-10.1-4.22-12.18-8.15-2.2-4.15-3.32-8.1-3.37-11.85,2.98,2.22,5.72,3.74,7.82,4.73,13.5,6.38,28.94,5.44,38.42-2.34,7.19-5.9,9.93-14.75,7.54-24.28-2.43-9.69-9.69-16.41-19.9-18.45-12.71-2.54-28.37,1.09-38.17,9.18-9.71,8.01-14.1,21.9-12.83,34.55.58,5.81,2.51,11.42,5.23,16.57,4.47,8.42,13.12,14.6,23.73,16.93,3.24.71,6.54,1.06,9.86,1.06,11.05,0,21.65-.66,33.59-13.09l-12.1-11.9c-7.09,7.47-18.59,9.03-27.64,7.04h0ZM365.04,64.05c4.75.95,6.22,3.46,6.76,5.62.97,3.88-.66,5.73-1.98,6.81-3.68,3.02-11.75,4.01-20.07.08-2.76-1.3-5.27-3.01-7.51-5.09,6.88-6.12,16.5-8.67,22.8-7.41h0Z"/>
  </g>
</svg>