<?xml version="1.0" encoding="UTF-8"?>
<svg id="Layer_2" data-name="Layer 2" xmlns="http://www.w3.org/2000/svg" viewBox="0 0 81.29 125.56">
  <defs>
    <style>
      .cls-1 {
        fill: #ff320a;
      }

      .cls-1, .cls-2 {
        stroke-width: 0px;
      }

      .cls-2 {
        fill: #000;
      }
    </style>
  </defs>
  <g id="Your_design" data-name="Your design">
    <circle class="cls-1" cx="12.11" cy="12.11" r="12.11"/>
    <path class="cls-2" d="M41.5,107.51c-5.66-1.25-10.11-4.22-12.2-8.16-2.2-4.15-3.33-8.11-3.38-11.87,2.98,2.22,5.72,3.74,7.83,4.73,13.52,6.39,28.98,5.45,38.47-2.35,7.19-5.91,9.94-14.77,7.55-24.31-2.43-9.7-9.7-16.43-19.93-18.47-11.56-2.31-25.36,1.74-35.6,9.76-2.3-6.24-3.51-13.56-3.51-21.71H3.43c0,16.1,3.69,27.95,8.66,36.61-5.22,10.96-4.6,23.38,1.93,35.7,4.47,8.43,13.14,14.61,23.76,16.95,3.24.71,6.54,1.15,9.86,1.15,11.06,0,21.68-.75,33.64-13.19l-12.11-11.91c-7.09,7.48-18.61,9.04-27.67,7.05ZM56.46,64.06c4.76.95,6.32,3.19,6.86,5.35.98,3.89-.75,6-2.07,7.09-3.68,3.02-11.76,4.02-20.09.08-2.76-1.3-5.27-3.02-7.51-5.1,6.88-6.13,16.52-8.68,22.82-7.42Z"/>
  </g>
</svg>